<?xml version="1.0" encoding="UTF-8"?><svg id="a" xmlns="http://www.w3.org/2000/svg" viewBox="0 0 500 500"><defs><style>.b{fill:#64499e;}.c{fill:none;stroke:#231f20;stroke-miterlimit:10;}</style></defs><g><path class="b" d="M246.5,71.5c.12,3.85-2.64,7.28-5,9-8.73,6.33-24.48-1.81-32-5-29.76-12.61-62.25-3.35-81,2-12.85,3.66-58.47,16.67-71,55-8.93,27.3,3.38,53.87,9,66,5.08,10.98,11.72,25.3,27,35,11.54,7.32,24.39,9.72,42,13,9.12,1.7,16.76,2.55,22,3l.3-.03c.58,5.1,1.91,10.52,3.7,17.03-8.11,1.58-41.4,7.12-74-13-33.93-20.95-43.18-54.92-46-66-1.28-5.01-14.11-58.91,20-99,20.77-24.41,48.75-31.71,69-37,24.92-6.5,45.06-5.35,50-5,15.71,1.1,11.15,3.37,37,7,3.48,.49,11.7,1.59,20,7,3.64,2.37,8.84,5.87,9,11Z"/><path class="b" d="M408.5,396.5c5,5.58,2.74,14.19,2,17-1.42,5.42-5.12,12.73-19,22-18.53,12.38-36.46,15.73-38,16-33.58,5.93-63.03,2.36-92,1-39.84-1.87-44.85,2.03-114,0-15.64-.46-37.51-1.35-60-14-4.41-2.48-31.41-17.67-29-33,.77-4.9,4.77-11.21,11-14,1.41-.63,6.19-2.77,11-1,5.33,1.97,4.61,6.5,11,13,4.36,4.44,8.92,6.62,16,10,5.17,2.47,9.72,4.03,13,5l66-75c-1.03-3.42-2.75-9.07-5-16-7.98-24.6-13.64-37.84-20-61-1.79-6.51-3.12-11.93-3.7-17.03-.59-5.05-.44-9.79,.7-14.97,1.01-4.57,2.52-8.21,6-15,9.22-17.98,18.56-31.31,24-39,10.32-14.6,18.91-26.57,25-35-16,.33-32,.67-48,1-13.67,20.67-27.33,41.33-41,62-11.33-7.67-22.67-15.33-34-23,17-27.33,34-54.67,51-82,42,.33,84,.67,126,1,4.98,1.07,12.3,3.39,19,9,6.99,5.86,9.3,11.95,15,24,9.4,19.88,14.1,29.82,20,37,10.36,12.6,22.2,18.96,28,22,6.05,3.17,14.72,7.62,27,9,6.11,.69,11.29,.41,15,0-.33,14.33-.67,28.67-1,43-15.44-.94-35.61-4.3-57-14-11.53-5.23-27.43-12.64-42-29-6.7-7.52-11.16-14.73-14-20-13,19.33-26,38.67-39,58,30,18.33,60,36.67,90,55,.33,40.67,.67,81.33,1,122,7.87-.2,14.34-1.12,19-2,7.57-1.42,11.5-2.2,16-5,2.8-1.74,2.75-2.36,10-9,6.53-5.98,9.8-8.97,12-10,6.23-2.9,16.74-3.88,22,2Zm-121,24c-.33-31.33-.67-62.67-1-94-23.67-14.33-47.33-28.67-71-43,7.33,22,14.67,44,22,66-20,23.67-40,47.33-60,71h110Z"/><path class="b" d="M352.5,14.5c2.22,1.25,2.41,7.74-5,29,1.71,4.29,3.96,11.78,3,21-1.4,13.51-8.81,22.31-12,26-3.49,4.04-8.62,9.95-17,13-17.4,6.32-39.84-2.99-49-19-4.29-7.49-4.74-14.85-5-19-.3-4.91-1.12-18.11,7-28,4.35-5.3,7.08-4.54,12-10,6.21-6.89,8.25-15.16,9-21,4.33,5,8.67,10,13,15,4.82,2.91,11.46,5.75,19,5,13.88-1.39,21.4-14.02,25-12Z"/><path class="b" d="M336.5,469.5c3.3,4.8,2.22,10.05,2,11-1.04,4.59-4.05,7.2-5,8-.31,.26-7.14,5.81-15,3-4.92-1.76-7.27-5.73-8-7-.79-1.39-2.96-5.15-2-10,.91-4.64,4.1-7.28,5-8,4.85-3.89,10.56-3.18,12-3,1.81,.23,7.52,.94,11,6Z"/><path class="b" d="M162.5,475.5c.31,1.97,.79,7.42-3,12-3.2,3.87-7.51,4.77-9,5-5.01,.77-8.78-1.3-10-2-3.7-2.11-5.49-5.09-6-6-.54-.96-2.09-3.96-2-8,.02-1.14,.33-9.15,7-13,6.11-3.53,12.56-.69,14,0,.49,.24,7.71,3.86,9,12Z"/></g><g><path class="c" d="M161.5,266.5c6.36,23.16,12.02,36.4,20,61,2.25,6.93,3.97,12.58,5,16l-66,75c-3.28-.97-7.83-2.53-13-5-7.08-3.38-11.64-5.56-16-10-6.39-6.5-5.67-11.03-11-13-4.81-1.77-9.59,.37-11,1-6.23,2.79-10.23,9.1-11,14-2.41,15.33,24.59,30.52,29,33,22.49,12.65,44.36,13.54,60,14,69.15,2.03,74.16-1.87,114,0,28.97,1.36,58.42,4.93,92-1,1.54-.27,19.47-3.62,38-16,13.88-9.27,17.58-16.58,19-22,.74-2.81,3-11.42-2-17-5.26-5.88-15.77-4.9-22-2-2.2,1.03-5.47,4.02-12,10-7.25,6.64-7.2,7.26-10,9-4.5,2.8-8.43,3.58-16,5-4.66,.88-11.13,1.8-19,2-.33-40.67-.67-81.33-1-122-30-18.33-60-36.67-90-55,13-19.33,26-38.67,39-58,2.84,5.27,7.3,12.48,14,20,14.57,16.36,30.47,23.77,42,29,21.39,9.7,41.56,13.06,57,14,.33-14.33,.67-28.67,1-43-3.71,.41-8.89,.69-15,0-12.28-1.38-20.95-5.83-27-9-5.8-3.04-17.64-9.4-28-22-5.9-7.18-10.6-17.12-20-37-5.7-12.05-8.01-18.14-15-24-6.7-5.61-14.02-7.93-19-9-42-.33-84-.67-126-1-17,27.33-34,54.67-51,82,11.33,7.67,22.67,15.33,34,23,13.67-20.67,27.33-41.33,41-62,16-.33,32-.67,48-1-6.09,8.43-14.68,20.4-25,35-5.44,7.69-14.78,21.02-24,39-3.48,6.79-4.99,10.43-6,15-1.14,5.18-1.29,9.92-.7,14.97"/><path class="c" d="M132.5,476.5c-.09,4.04,1.46,7.04,2,8,.51,.91,2.3,3.89,6,6,1.22,.7,4.99,2.77,10,2,1.49-.23,5.8-1.13,9-5,3.79-4.58,3.31-10.03,3-12-1.29-8.14-8.51-11.76-9-12-1.44-.69-7.89-3.53-14,0-6.67,3.85-6.98,11.86-7,13Z"/><path class="c" d="M313.5,466.5c-.9,.72-4.09,3.36-5,8-.96,4.85,1.21,8.61,2,10,.73,1.27,3.08,5.24,8,7,7.86,2.81,14.69-2.74,15-3,.95-.8,3.96-3.41,5-8,.22-.95,1.3-6.2-2-11-3.48-5.06-9.19-5.77-11-6-1.44-.18-7.15-.89-12,3Z"/><path class="c" d="M177.5,420.5c20-23.67,40-47.33,60-71-7.33-22-14.67-44-22-66,23.67,14.33,47.33,28.67,71,43,.33,31.33,.67,62.67,1,94h-110Z"/><path class="c" d="M272.5,84.5c-4.29-7.49-4.74-14.85-5-19-.3-4.91-1.12-18.11,7-28,4.35-5.3,7.08-4.54,12-10,6.21-6.89,8.25-15.16,9-21,4.33,5,8.67,10,13,15,4.82,2.91,11.46,5.75,19,5,13.88-1.39,21.4-14.02,25-12,2.22,1.25,2.41,7.74-5,29,1.71,4.29,3.96,11.78,3,21-1.4,13.51-8.81,22.31-12,26-3.49,4.04-8.62,9.95-17,13-17.4,6.32-39.84-2.99-49-19Z"/><path class="c" d="M157.5,249.5c-5.24-.45-12.88-1.3-22-3-17.61-3.28-30.46-5.68-42-13-15.28-9.7-21.92-24.02-27-35-5.62-12.13-17.93-38.7-9-66,12.53-38.33,58.15-51.34,71-55,18.75-5.35,51.24-14.61,81-2,7.52,3.19,23.27,11.33,32,5,2.36-1.72,5.12-5.15,5-9-.16-5.13-5.36-8.63-9-11-8.3-5.41-16.52-6.51-20-7-25.85-3.63-21.29-5.9-37-7-4.94-.35-25.08-1.5-50,5-20.25,5.29-48.23,12.59-69,37-34.11,40.09-21.28,93.99-20,99,2.82,11.08,12.07,45.05,46,66,32.6,20.12,65.89,14.58,74,13"/></g></svg>